#!OML:ASF H:\Terrain\Patient Classification 1\Terrain2\Thursday\justin.ASF
:FULLY-SPECIFIED
:DEGREES
1202
root -4.56077 17.1151 -20.9996 488.469 -79.7234 235.922
lowerback 1.4997 1.83326 7.54131
upperback 0.7875 2.43008 3.69429
thorax 0.130615 1.18104 -0.44029
lowerneck -13.8266 1.16851 -7.35294
upperneck 39.3072 1.80063 1.36397
head 16.3283 -0.754295 2.05539
rclavicle 2.85256e-014 2.54444e-014
rhumerus -31.271 -11.0764 -78.8206
rradius 23.7373
rwrist -7.72469
rhand -21.1912 13.3294
rfingers 7.12502
rthumb 5.18977 -16.587
lclavicle 2.85256e-014 2.54444e-014
lhumerus -38.4354 10.6562 82.3207
lradius 26.1632
lwrist -1.15185
lhand -16.8304 21.0171
lfingers 7.12502
lthumb 9.39895 50.7875
rfemur 15.391 1.00995 31.7896
rtibia 3.79415
rfoot -12.7526 0.109373
rtoes 8.03452
lfemur -29.5858 9.87688 -12.0776
ltibia 25.008
lfoot -3.02597 5.87506
ltoes 11.3025
1203
root -4.65688 17.1396 -20.9835 488.666 -79.796 235.817
lowerback 1.37602 1.9376 7.59195
upperback 0.768341 2.55845 3.66492
thorax 0.191958 1.24706 -0.494831
lowerneck -13.9372 1.13011 -7.71853
upperneck 39.3586 1.76292 1.66253
head 16.3759 -0.782354 2.24891
rclavicle 1.86361e-014 1.03368e-014
rhumerus -31.3396 -12.2335 -78.3294
rradius 23.5227
rwrist -6.70929
rhand -21.4856 13.3127
rfingers 7.12502
rthumb 4.90547 -16.6105
lclavicle 1.86361e-014 1.03368e-014
lhumerus -38.2824 9.48196 82.8003
lradius 26.6634
lwrist 0.329588
lhand -17.8315 21.8033
lfingers 7.12502
lthumb 8.43292 51.615
rfemur 15.0497 1.05145 31.5755
rtibia 4.85429
rfoot -12.8083 0.267197
rtoes 8.07372
lfemur -29.3237 9.75102 -12.189
ltibia 25.0657
lfoot -2.67631 5.69996
ltoes 13.4285
1204
root -4.75551 17.1625 -20.9602 488.734 -79.9061 235.85
lowerback 1.22474 1.95102 7.651
upperback 0.691232 2.56811 3.62048
thorax 0.202377 1.25181 -0.569183
lowerneck -13.5052 1.22945 -7.92462
upperneck 39.1283 1.88271 1.79769
head 16.1336 -0.731607 2.35547
rclavicle -1.10325e-014 -1.35174e-014
rhumerus -31.5465 -12.7263 -77.9948
rradius 23.4859
rwrist -6.35021
rhand -21.1261 12.8978
rfingers 7.12502
rthumb 5.25258 -17.0171
lclavicle -1.10325e-014 -1.35174e-014
lhumerus -38.3917 10.1106 82.6444
lradius 26.9884
lwrist -0.168327
lhand -17.8974 21.94
lfingers 7.12502
lthumb 8.36935 51.7541
rfemur 15.0414 1.06973 31.2708
rtibia 5.43358
rfoot -12.5071 0.772476
rtoes 9.13718
lfemur -29.2306 10.26 -12.4885
ltibia 25.2453
lfoot -2.42341 4.78058
ltoes 16.2777
1205
root -4.853 17.1634 -20.9349 488.085 -79.928 236.587
lowerback 1.0008 1.68996 7.52716
upperback 0.694783 2.18849 3.82321
thorax 0.294346 1.06161 -0.284288
lowerneck -12.9005 1.74146 -7.91607
upperneck 38.4964 2.66729 1.66173
head 15.609 -0.382427 2.40225
rclavicle -5.71506e-015 -1.43125e-014
rhumerus -31.296 -11.764 -78.0788
rradius 23.3018
rwrist -6.67939
rhand -20.8186 12.7253
rfingers 7.12502
rthumb 5.5495 -17.1821
lclavicle -5.71506e-015 -1.43125e-014
lhumerus -38.5064 11.1516 82.3378
lradius 27.3408
lwrist -0.222671
lhand -17.5074 21.5709
lfingers 7.12502
lthumb 8.74568 51.3697
rfemur 14.7751 1.01389 31.2538
rtibia 6.29029
rfoot -12.2497 0.514983
rtoes 4.11447
lfemur -29.1861 10.6822 -12.6161
ltibia 25.4274
lfoot -2.33012 3.8981
ltoes 18.7025
1206
root -4.94609 17.1873 -20.9175 487.398 -80.0396 237.217
lowerback 1.20397 1.34397 7.71279
upperback 0.633762 1.76212 3.64386
thorax 0.102627 0.845851 -0.577142
lowerneck -13.4779 1.78757 -7.35588
upperneck 39.0601 2.7715 1.19608
head 16.055 -0.367187 2.13428
rclavicle -1.97294e-014 5.56597e-015
rhumerus -31.1176 -11.41 -78.6214
rradius 23.0127
rwrist -6.70155
rhand -20.6055 12.8467
rfingers 7.12502
rthumb 5.75527 -17.0552
lclavicle -1.97294e-014 5.56597e-015
lhumerus -38.7389 11.5003 81.7111
lradius 27.9211
lwrist 0.406182
lhand -17.7997 21.7788
lfingers 7.12502
lthumb 8.46368 51.5892
rfemur 14.6695 0.889556 31.1637
rtibia 7.17496
rfoot -12.05 0.342603
rtoes 0.432538
lfemur -28.8712 10.2059 -12.5352
ltibia 25.6223
lfoot -2.60604 3.69206
ltoes 21.9896
1207
root -5.03741 17.2237 -20.8986 487.155 -80.2347 237.378
lowerback 1.33511 1.47453 7.80464
upperback 0.628708 1.95845 3.43976
thorax 0.0468044 0.945613 -0.842584
lowerneck -13.5276 1.60217 -7.0832
upperneck 39.1907 2.42283 1.1543
head 16.1608 -0.48362 2.013
rclavicle -1.31695e-014 -4.45278e-014
rhumerus -31.375 -12.5371 -78.3791
rradius 23.0553
rwrist -6.37662
rhand -20.5653 12.9451
rfingers 7.12502
rthumb 5.79407 -16.9557
lclavicle -1.31695e-014 -4.45278e-014
lhumerus -38.5245 10.4226 81.98
lradius 28.3619
lwrist 1.03365
lhand -17.1711 21.4101
lfingers 7.12502
lthumb 9.07024 51.195
rfemur 14.4661 0.795569 30.8197
rtibia 8.37193
rfoot -11.9628 0.889428
rtoes 3.00448
lfemur -28.4768 9.95458 -12.6785
ltibia 25.7425
lfoot -2.77052 3.20098
ltoes 24.4607
1208
root -5.13068 17.2297 -20.8697 487.008 -80.5659 237.527
lowerback 1.32872 1.7198 7.87728
upperback 0.584767 2.29463 3.25169
thorax 0.0394052 1.11546 -1.07848
lowerneck -13.5212 1.39464 -7.26489
upperneck 39.3381 2.0359 1.48303
head 16.2489 -0.629476 2.12801
rclavicle -3.28492e-014 -1.98785e-015
rhumerus -31.7952 -13.8858 -77.8415
rradius 23.2923
rwrist -6.2454
rhand -20.5436 12.6747
rfingers 7.12502
rthumb 5.81498 -17.2255
lclavicle -3.28492e-014 -1.98785e-015
lhumerus -38.176 9.55105 82.3572
lradius 28.6345
lwrist 0.881167
lhand -16.625 21.1693
lfingers 7.12502
lthumb 9.59719 50.9307
rfemur 13.7659 0.629135 30.3633
rtibia 10.1726
rfoot -12.018 1.07086
rtoes 2.28078
lfemur -28.0708 9.91297 -13.0884
ltibia 25.6358
lfoot -2.80445 2.58455
ltoes 27.7506
1209
root -5.22902 17.2351 -20.8598 489.213 -80.9063 235.292
lowerback 1.02449 1.79562 6.68222
upperback 0.73318 2.33498 3.73525
thorax 0.297148 1.13791 0.0902154
lowerneck -13.5208 1.38164 -8.17196
upperneck 39.3253 2.31332 1.45864
head 16.2223 -0.651473 2.32413
rclavicle 1.40143e-014 9.93923e-015
rhumerus -31.5852 -13.4248 -77.0545
rradius 23.3875
rwrist -6.67042
rhand -20.4753 12.3026
rfingers 7.12502
rthumb 5.88095 -17.5958
lclavicle 1.40143e-014 9.93923e-015
lhumerus -37.9342 10.5773 83.0924
lradius 28.898
lwrist 0.233146
lhand -16.8942 21.7687
lfingers 7.12502
lthumb 9.33741 51.5419
rfemur 13.2706 0.670928 29.7238
rtibia 11.7585
rfoot -12.02 1.10838
rtoes -1.73178
lfemur -27.5538 10.0739 -13.6562
ltibia 25.5371
lfoot -2.85067 1.98209
ltoes 30.2738
1210
root -5.32444 17.263 -20.8256 489.577 -81.4464 235.188
lowerback 0.825572 1.01364 6.06171
upperback 0.624347 1.28867 3.63687
thorax 0.23383 0.61556 0.337324
lowerneck -13.6565 2.08907 -7.26246
upperneck 39.3059 3.37631 0.758606
head 16.2112 -0.183682 2.0315
rclavicle -3.23025e-015 -1.35174e-014
rhumerus -31.1269 -11.4794 -78.2061
rradius 23.2163
rwrist -7.00823
rhand -20.7264 12.7633
rfingers 7.12502
rthumb 5.63849 -17.1417
lclavicle -3.23025e-015 -1.35174e-014
lhumerus -38.4147 11.7864 82.1387
lradius 29.6046
lwrist 0.796101
lhand -17.1271 22.5811
lfingers 7.12502
lthumb 9.11269 52.3643
rfemur 12.4646 0.283385 28.9872
rtibia 13.1992
rfoot -11.8119 1.46396
rtoes -3.4356
lfemur -27.5546 9.27518 -14.189
ltibia 25.4877
lfoot -2.9177 2.0182
ltoes 30.2645
1211
root -5.42113 17.2752 -20.8137 489.806 -81.4513 234.673
lowerback 1.04503 1.22194 6.0185
upperback 0.710656 1.58274 3.55342
thorax 0.211939 0.764209 0.27085
lowerneck -13.5563 2.05991 -7.03427
upperneck 39.2097 3.26232 0.768985
head 16.1444 -0.183334 1.97573
rclavicle 2.05245e-014 3.77691e-014
rhumerus -31.3913 -11.721 -78.1198
rradius 23.5037
rwrist -7.74372
rhand -20.8275 12.8769
rfingers 7.12502
rthumb 5.54089 -17.0306
lclavicle 2.05245e-014 3.77691e-014
lhumerus -38.0877 10.419 82.5473
lradius 29.9596
lwrist 1.40947
lhand -18.0303 23.4263
lfingers 7.12502
lthumb 8.24107 53.2456
rfemur 12.2504 0.418714 28.8536
rtibia 14.7568
rfoot -11.509 1.47571
rtoes -3.07867
lfemur -26.9019 9.29637 -14.2158
ltibia 25.4449
lfoot -2.90637 1.71802
ltoes 29.9636
1212
root -5.51221 17.2816 -20.7846 487.788 -81.3682 236.617
lowerback 1.11682 1.40314 6.55245
upperback 0.744015 1.82898 3.52505
thorax 0.234554 0.8883 -0.0558421
lowerneck -13.6535 1.97316 -7.00774
upperneck 39.2445 3.15061 0.768567
head 16.1939 -0.222075 1.95628
rclavicle -1.65985e-014 -1.19271e-014
rhumerus -31.646 -12.5637 -77.7684
rradius 23.7568
rwrist -7.70004
rhand -21.4444 12.4689
rfingers 7.12502
rthumb 4.94527 -17.4534
lclavicle -1.65985e-014 -1.19271e-014
lhumerus -37.5741 9.55337 83.0301
lradius 30.1126
lwrist 1.47178
lhand -18.2065 23.2316
lfingers 7.12502
lthumb 8.071 53.0574
rfemur 11.7776 0.128384 28.8966
rtibia 16.2882
rfoot -11.1337 1.74923
rtoes -3.55507
lfemur -26.4111 8.95618 -13.9869
ltibia 25.4491
lfoot -3.14869 1.55871
ltoes 31.1299
